HIERARCHY
ROOT Hips
{
	OFFSET 0.000000 0.000000 0.000000 
	CHANNELS 6 Xposition Yposition Zposition Yrotation Zrotation Xrotation 
	JOINT Lumbar
	{
		OFFSET 0.000000 0.000000 0.000000 
		CHANNELS 3 Zrotation Xrotation Yrotation
		JOINT Neck
		{
			OFFSET 0.000000 0.445665 0.000000 
			CHANNELS 3 Zrotation Xrotation Yrotation
			End Site
			{
				OFFSET 0.000000 0.227535 0.000000 
			}
		}
		JOINT RightShoulder
		{
			OFFSET 0.019635 0.377685 0.194865 
			CHANNELS 3 Zrotation Xrotation Yrotation
			JOINT RightElbow
			{
				OFFSET 0.000000 -0.243375 0.000000 
				CHANNELS 2 Zrotation Yrotation
				JOINT RightWrist
				{
					OFFSET 0.000000 -0.264825 0.000000 
					CHANNELS 2 Zrotation Xrotation
					End Site
					{
						OFFSET 0.006600 -0.176220 0.000990 
					}
				}
			}
		}
		JOINT LeftShoulder
		{
			OFFSET 0.019635 0.377685 -0.194865 
			CHANNELS 3 Zrotation Xrotation Yrotation
			JOINT LeftElbow
			{
				OFFSET 0.000000 -0.243375 0.000000 
				CHANNELS 2 Zrotation Yrotation
				JOINT LeftWrist
				{
					OFFSET 0.000000 -0.264825 0.000000 
					CHANNELS 2 Zrotation Xrotation
					End Site
					{
						OFFSET 0.006600 -0.176220 -0.000990 
					}
				}
			}
		}
	}
	JOINT RightHip
	{
		OFFSET 0.052140 -0.069960 0.075570 
		CHANNELS 3 Zrotation Xrotation Yrotation
		JOINT RightKnee
		{
			OFFSET 0.000000 -0.402270 0.000000 
			CHANNELS 1 Zrotation
			JOINT RightAnkle
			{
				OFFSET 0.000000 -0.404085 0.000000 
				CHANNELS 3 Zrotation Xrotation Yrotation
				End Site
				{
					OFFSET 0.204105 -0.089430 0.008415 
				}
			}
		}
	}
	JOINT LeftHip
	{
		OFFSET 0.052140 -0.069960 -0.075570 
		CHANNELS 3 Zrotation Xrotation Yrotation
		JOINT LeftKnee
		{
			OFFSET 0.000000 -0.402270 0.000000 
			CHANNELS 1 Zrotation
			JOINT LeftAnkle
			{
				OFFSET 0.000000 -0.404085 0.000000 
				CHANNELS 3 Zrotation Xrotation Yrotation
				End Site
				{
					OFFSET 0.204105 -0.089430 -0.008415 
				}
			}
		}
	}
}
MOTION
Frames: 28
Frame Time: 0.02
-0.00038 -2e-05 0.00016 -174.77507 -28.82038 1.38352 44.4372 -0.96981 -7.16843 -11.74689 3.28881 -0.39245 -22.83012 -9.93285 10.85509 29.89431 61.93661 0.07091 -4.66058 -24.53089 10.01365 -7.27282 33.41382 -77.38343 6.86663 3.44214 27.58133 -0.67937 1.04453 -20.49564 -7.81798 -5.69319 -3.74971 33.34086 2.51682 -1.63401 -24.44349 -6.7684 4.08301 2.79217
9e-05 3e-05 0.0002 -174.82621 -28.83919 1.36583 44.40919 -0.96907 -7.16942 -11.76654 3.32267 -0.39282 -22.69117 -9.21827 8.38984 29.83955 69.14126 1.88715 -3.49931 -24.48655 9.41069 -5.69068 33.36476 -83.33945 8.68828 2.46755 27.62503 -0.80474 0.32973 -20.49879 -7.74363 -5.63669 -3.71035 33.38435 2.59855 -1.28677 -24.44506 -6.75683 4.0496 2.77183
0.00056 8e-05 0.00023 -174.87723 -28.85793 1.34814 44.38119 -0.96831 -7.17042 -11.78613 3.35645 -0.3932 -22.55272 -8.50674 5.93533 29.78502 76.31461 3.69551 -2.34308 -24.44234 8.81025 -4.11531 33.31575 -89.26974 10.50212 1.49719 27.66862 -0.92977 -0.38316 -20.50194 -7.66948 -5.58033 -3.67111 33.42774 2.6801 -0.94042 -24.44663 -6.74528 4.01626 2.75153
0.00102 0.00012 0.00026 -174.92821 -28.87669 1.3305 44.35326 -0.96757 -7.17141 -11.80572 3.3902 -0.39358 -22.41421 -7.79453 3.47829 29.73045 83.49529 5.50571 -1.18567 -24.39814 8.20928 -2.5384 33.26683 -95.20596 12.31771 0.52584 27.71219 -1.05477 -1.09583 -20.50509 -7.59535 -5.524 -3.63187 33.4711 2.7616 -0.59421 -24.4482 -6.73373 3.98295 2.73124
0.00149 0.00017 0.0003 -174.97931 -28.89551 1.31287 44.32535 -0.96685 -7.17237 -11.82536 3.42403 -0.39396 -22.27518 -7.0789 1.00906 29.67562 90.7115 7.32484 -0.02255 -24.35382 7.60549 -0.95388 33.21789 -101.17141 14.14219 -0.4503 27.75586 -1.1801 -1.81025 -20.50823 -7.52105 -5.46755 -3.59255 33.51453 2.84325 -0.24717 -24.44976 -6.72216 3.94959 2.71092
0.00196 0.00022 0.00033 -175.03018 -28.9141 1.29509 44.29716 -0.96603 -7.17345 -11.84485 3.45772 -0.39433 -22.13794 -6.376 -1.41457 29.62171 97.79488 9.11062 1.11923 -24.30986 7.01208 0.60228 33.16875 -107.0279 15.93374 -1.40852 27.79931 -1.30448 -2.51986 -20.51141 -7.44723 -5.41139 -3.55346 33.55782 2.92457 0.09771 -24.45136 -6.71066 3.91631 2.69067
0.00243 0.00027 0.00037 -175.08141 -28.93312 1.27763 44.26956 -0.96541 -7.17431 -11.86463 3.49162 -0.39471 -21.99728 -5.64847 -3.92634 29.56606 105.13497 10.96082 2.30225 -24.26522 6.39862 2.2133 33.12008 -113.0948 17.78874 -2.40138 27.84313 -1.43064 -3.23847 -20.5145 -7.3725 -5.3547 -3.51393 33.60136 3.00647 0.44655 -24.45288 -6.69903 3.88289 2.67029
0.0029 0.00032 0.0004 -175.13239 -28.95176 1.25986 44.24142 -0.9646 -7.17534 -11.88414 3.52537 -0.39509 -21.85968 -4.94325 -6.35852 29.51192 112.2434 12.75292 3.44804 -24.2212 5.80331 3.77463 33.07097 -118.97204 19.58674 -3.36298 27.88663 -1.55514 -3.94859 -20.51767 -7.29862 -5.29851 -3.47482 33.64468 3.08782 0.79172 -24.45449 -6.68752 3.84962 2.65004
0.00337 0.00037 0.00044 -175.18278 -28.96989 1.24176 44.21257 -0.96356 -7.1767 -11.90335 3.55878 -0.39546 -21.72616 -4.26676 -8.6872 29.46001 119.04991 14.46916 4.54536 -24.17794 5.23142 5.27194 33.02128 -124.60123 21.30945 -4.28382 27.92971 -1.67775 -4.64942 -20.52095 -7.2257 -5.24287 -3.43617 33.68771 3.1686 1.13268 -24.45615 -6.67615 3.81643 2.6299
0.00384 0.00041 0.00047 -175.23568 -28.99084 1.22568 44.18767 -0.96385 -7.17653 -11.92434 3.59368 -0.39585 -21.57021 -3.42935 -11.59271 29.3964 127.5372 16.60734 5.91268 -24.13032 4.52846 7.12775 32.9748 -131.60889 23.44848 -5.43153 27.97509 -1.81165 -5.40701 -20.52366 -7.14705 -5.18389 -3.39471 33.73234 3.25299 1.49872 -24.45734 -6.66394 3.78249 2.60898
0.00431 0.00048 0.00051 -175.28383 -29.00588 1.20527 44.15454 -0.96132 -7.17934 -11.94156 3.62573 -0.39621 -21.4609 -2.92859 -13.29333 29.35674 132.51483 17.86472 6.71608 -24.09189 4.09969 8.2336 32.92164 -135.73972 24.72001 -6.10552 28.0157 -1.92146 -6.04266 -20.52753 -7.0806 -5.13205 -3.35927 33.77362 3.32955 1.81123 -24.45963 -6.65355 3.75033 2.58983
0.00477 0.0006 0.0006 -175.31458 -29.00429 1.17352 44.09777 -0.95123 -7.19262 -11.94835 3.64756 -0.39647 -21.48648 -3.38453 -11.55384 29.38964 127.46266 16.60276 5.90907 -24.07896 4.44956 7.21026 32.84934 -131.64346 23.49908 -5.42703 28.04223 -1.96696 -6.35904 -20.53491 -7.0469 -5.09914 -3.33973 33.80552 3.38622 1.98091 -24.46419 -6.64782 3.72126 2.57453
0.00524 0.00074 0.0007 -175.34144 -28.99683 1.13732 44.03293 -0.93827 -7.20851 -11.95138 3.66705 -0.3967 -21.55769 -4.1725 -8.62851 29.44547 118.95824 14.47483 4.54716 -24.07522 5.0695 5.44844 32.77062 -124.72354 21.42844 -4.28324 28.06409 -1.98807 -6.55045 -20.54339 -7.02554 -5.07349 -3.32632 33.83404 3.43476 2.09632 -24.47001 -6.64399 3.69428 2.56119
0.0057 0.00087 0.00081 -175.37283 -28.99237 1.10283 43.97251 -0.92654 -7.22164 -11.95612 3.68912 -0.39695 -21.60338 -4.7869 -6.33417 29.48616 112.29665 12.81064 3.48066 -24.06706 5.54925 4.0693 32.69518 -119.30871 19.81893 -3.38592 28.08878 -2.01903 -6.78862 -20.55117 -6.999 -5.04497 -3.31053 33.86428 3.486 2.23362 -24.47576 -6.63953 3.66755 2.54765
0.00617 0.00101 0.00087 -175.39225 -28.98659 1.06971 43.90892 -0.91515 -7.24124 -11.96074 3.70451 -0.39715 -21.66899 -5.4973 -3.65185 29.54622 104.47973 10.8504 2.23174 -24.0599 6.1049 2.48426 32.61761 -112.93747 17.88856 -2.3373 28.11066 -2.05469 -7.06759 -20.55981 -6.97077 -5.01471 -3.29314 33.89393 3.5414 2.38156 -24.47941 -6.63412 3.6359 2.53128
0.00662 0.00113 0.00104 -175.43605 -28.98204 1.0326 43.84999 -0.90231 -7.24819 -11.96484 3.73358 -0.39746 -21.70438 -6.08698 -1.49263 29.57211 98.24075 9.29896 1.22972 -24.05293 6.56437 1.16016 32.5437 -107.90664 16.42838 -1.49673 28.13704 -2.07535 -7.23362 -20.56689 -6.9489 -4.98971 -3.28042 33.92375 3.58624 2.49569 -24.48771 -6.63108 3.61485 2.52118
0.00706 0.00123 0.00143 -175.54511 -28.98347 0.98626 43.80608 -0.88671 -7.21813 -11.96759 3.79839 -0.39807 -21.64097 -6.25608 -1.10677 29.49192 97.30537 9.11379 1.06082 -24.04384 6.71053 0.67556 32.47599 -107.11811 16.44717 -1.31706 28.17921 -2.05574 -7.10419 -20.56992 -6.94235 -4.97834 -3.28006 33.95733 3.60353 2.51909 -24.50867 -6.63465 3.62379 2.52876
0.00749 0.00131 0.00194 -175.6795 -28.98615 0.93589 43.76709 -0.86965 -7.17566 -11.97011 3.87759 -0.39879 -21.54635 -6.29319 -1.28172 29.37785 98.05966 9.36546 1.15689 -24.03504 6.74806 0.48818 32.41379 -107.79741 16.97187 -1.36679 28.22574 -2.02278 -6.86787 -20.5713 -6.94166 -4.97184 -3.28401 33.99077 3.61044 2.51201 -24.53424 -6.64044 3.64316 2.54245
0.00792 0.0014 0.00241 -175.80418 -28.98746 0.88698 43.72573 -0.85288 -7.13967 -11.97329 3.95185 -0.39947 -21.46871 -6.39462 -1.17452 29.28314 97.97444 9.40062 1.12154 -24.02593 6.8219 0.20882 32.35191 -107.91352 17.28562 -1.33136 28.26873 -1.99916 -6.69016 -20.57309 -6.93779 -4.9625 -3.28534 34.02261 3.6225 2.52629 -24.5576 -6.64486 3.65689 2.55274
0.00836 0.00149 0.0028 -175.92075 -28.99182 0.83965 43.68467 -0.83753 -7.09968 -11.97399 4.01903 -0.40014 -21.38074 -6.48955 -1.13988 29.1719 98.06966 9.48134 1.11301 -24.01647 6.95615 -0.2674 32.2755 -107.52338 17.49772 -1.20452 28.31781 -1.96094 -6.46675 -20.57625 -6.93646 -4.95604 -3.28965 34.06119 3.63289 2.50831 -24.58148 -6.65086 3.67428 2.56562
0.00878 0.00158 0.0034 -176.06074 -28.99037 0.78794 43.64423 -0.81898 -7.06569 -11.97984 4.1047 -0.40084 -21.30641 -6.56209 -1.10428 29.08748 98.237 9.58232 1.11906 -24.00948 6.94047 -0.26702 32.23376 -108.53427 18.0426 -1.32177 28.35571 -1.95019 -6.31351 -20.57626 -6.93115 -4.9447 -3.28875 34.08593 3.64385 2.54934 -24.60535 -6.65411 3.68675 2.57469
0.00912 0.00171 0.00456 -176.25576 -28.97115 0.72686 43.60443 -0.79128 -7.0457 -12.00039 4.23556 -0.40155 -21.27622 -6.60542 -0.92208 29.07919 98.19326 9.63573 1.1009 -23.99558 6.49368 1.09508 32.26427 -113.3954 19.47077 -2.1175 28.35847 -2.01954 -6.39165 -20.56732 -6.9125 -4.91814 -3.27187 34.07109 3.66366 2.77542 -24.62828 -6.64872 3.681 2.57032
0.00944 0.00184 0.00595 -176.47437 -28.94632 0.6612 43.56502 -0.76048 -7.03307 -12.02623 4.38504 -0.40229 -21.26082 -6.62902 -0.72719 29.1002 98.18073 9.69824 1.09103 -23.98772 5.90823 2.90631 32.33616 -119.56152 21.20182 -3.14143 28.3506 -2.11699 -6.54264 -20.55557 -6.88971 -4.88655 -3.24965 34.04264 3.68354 3.05956 -24.65105 -6.64057 3.67033 2.56217
0.00978 0.00197 0.00726 -176.68418 -28.92501 0.59658 43.52543 -0.73162 -7.02092 -12.0492 4.52746 -0.40303 -21.2392 -6.65974 -0.54799 29.11164 98.1691 9.75865 1.07994 -23.98468 5.41143 4.44038 32.40043 -124.92738 22.74368 -4.02427 28.34949 -2.20094 -6.65333 -20.5453 -6.86937 -4.85765 -3.23024 34.02134 3.70037 3.30768 -24.67374 -6.63399 3.66323 2.55664
0.0101 0.00211 0.00846 -176.88585 -28.89967 0.53635 43.48628 -0.70072 -6.99279 -12.0735 4.66417 -0.40374 -21.21446 -6.69383 -0.34403 29.10574 98.14997 9.82491 1.06693 -23.94538 4.79594 6.30042 32.40733 -131.23778 24.53002 -5.07504 28.3397 -2.28719 -6.79039 -20.53336 -6.84693 -4.82733 -3.20944 33.99586 3.7297 3.59507 -24.69711 -6.62614 3.65076 2.54746
0.01045 0.00223 0.00994 -177.1109 -28.88133 0.46575 43.44591 -0.67305 -6.99909 -12.09707 4.81738 -0.4045 -21.20005 -6.71793 -0.18356 29.14383 98.13298 9.87588 1.05656 -23.98847 4.40469 7.57479 32.55646 -135.84645 25.86035 -5.82429 28.34627 -2.3759 -6.89149 -20.52518 -6.8277 -4.79855 -3.19012 33.97599 3.733 3.81526 -24.71912 -6.62029 3.64829 2.54496
0.01086 0.00233 0.01212 -177.38514 -28.88411 0.36935 43.4047 -0.65743 -7.10492 -12.11064 5.00838 -0.40535 -21.21163 -6.7192 -0.12757 29.29334 98.1057 9.87852 1.05076 -24.21376 4.5922 7.21071 32.9809 -135.66908 25.9685 -5.71274 28.39411 -2.46161 -6.87421 -20.52173 -6.81904 -4.77664 -3.17704 33.97386 3.66558 3.83215 -24.73632 -6.62036 3.67354 2.5615
0.01132 0.00241 0.01458 -177.68397 -28.89399 0.26237 43.3615 -0.64467 -7.24368 -12.12461 5.21586 -0.40626 -21.23323 -6.71176 -0.1166 29.48746 98.07297 9.86388 1.04624 -24.53162 5.02365 6.22896 33.5696 -133.69626 25.58954 -5.28548 28.46057 -2.54961 -6.81912 -20.52441 -6.81357 -4.75612 -3.16544 33.97811 3.5717 3.78012 -24.75249 -6.62259 3.7092 2.58493
